<svg width="272" height="451" viewBox="0 0 272 451" fill="none" xmlns="http://www.w3.org/2000/svg">
<path d="M174.28 158.512V97.072H118.984V60.592H174.28V0.687988H215.752V60.592H271.432V97.072H215.752V158.512H174.28Z" fill="#FFDC4E"/>
<path d="M86.2238 450.76C64.4638 450.76 47.3118 446.664 34.7678 438.472C22.4798 430.28 13.6478 418.888 8.2718 404.296C3.1518 389.448 0.591797 372.424 0.591797 353.224V342.088H64.7198C64.7198 342.344 64.7198 343.752 64.7198 346.312C64.7198 348.872 64.7198 351.176 64.7198 353.224C64.7198 363.464 65.3598 371.784 66.6398 378.184C67.9198 384.584 70.2238 389.32 73.5518 392.392C76.8798 395.208 81.4878 396.616 87.3758 396.616C93.2638 396.616 97.6158 395.08 100.432 392.008C103.504 388.936 105.552 384.328 106.576 378.184C107.6 372.04 108.112 364.36 108.112 355.144C108.112 339.784 105.936 328.136 101.584 320.2C97.4878 312.008 88.7838 307.784 75.4718 307.528C75.2158 307.528 73.8078 307.528 71.2478 307.528C68.6878 307.528 66.1278 307.528 63.5678 307.528V263.368C65.3598 263.368 67.1518 263.368 68.9438 263.368C70.7358 263.368 72.3998 263.368 73.9358 263.368C87.5038 263.368 96.5918 259.656 101.2 252.232C105.808 244.808 108.112 233.288 108.112 217.672C108.112 205.64 106.448 196.424 103.12 190.024C100.048 183.624 94.1598 180.424 85.4558 180.424C77.0078 180.424 71.3758 184.008 68.5598 191.176C65.9998 198.344 64.7198 207.56 64.7198 218.824C64.7198 221.384 64.7198 224.072 64.7198 226.888C64.7198 229.448 64.7198 232.136 64.7198 234.952H0.591797V216.136C0.591797 197.448 3.9198 181.704 10.5758 168.904C17.4878 155.848 27.2158 145.992 39.7598 139.336C52.5598 132.68 67.7918 129.352 85.4558 129.352C103.376 129.352 118.736 132.552 131.536 138.952C144.336 145.352 154.192 154.824 161.104 167.368C168.016 179.656 171.472 195.016 171.472 213.448C171.472 231.624 167.76 246.856 160.336 259.144C152.912 271.432 143.952 278.984 133.456 281.8C140.624 284.36 147.024 288.456 152.656 294.088C158.544 299.72 163.152 307.4 166.48 317.128C169.808 326.6 171.472 338.76 171.472 353.608C171.472 372.552 168.656 389.32 163.024 403.912C157.648 418.504 148.688 430.024 136.144 438.472C123.6 446.664 106.96 450.76 86.2238 450.76Z" fill="#FFDC4E"/>
</svg>
