<svg width="300" height="400" viewBox="0 0 300 400" fill="none" xmlns="http://www.w3.org/2000/svg">
<path fill-rule="evenodd" clip-rule="evenodd" d="M280.752 155.512H239.28V94.072H183.984V57.592H239.28V0H0V1.008L38.88 8.352V18.144L0 25.392V30.759L32.496 30.759V24.903H38.88V45.207H32.496L32.496 39.399H0V274.561H4.99201C4.99201 275.426 5.04001 276.161 5.13601 276.77C5.23201 277.378 5.40801 277.858 5.66401 278.21C5.95201 278.561 6.35201 278.818 6.86401 278.978C7.40801 279.138 8.09601 279.217 8.92801 279.217H38.88V287.81H8.54401C6.43201 287.81 4.65601 287.538 3.21601 286.993C1.80801 286.482 0.752013 285.569 0.0480124 284.258C0.0318221 284.227 0.015818 284.197 0 284.166V400H72.8334C68.0058 385.46 65.592 368.868 65.592 350.224V339.088H129.72V343.312V350.224C129.72 360.464 130.36 368.784 131.64 375.184C132.92 381.584 135.224 386.32 138.552 389.392C141.88 392.208 146.488 393.616 152.376 393.616C158.264 393.616 162.616 392.08 165.432 389.008C168.504 385.936 170.552 381.328 171.576 375.184C172.6 369.04 173.112 361.36 173.112 352.144C173.112 336.784 170.936 325.136 166.584 317.2C162.488 309.008 153.784 304.784 140.472 304.528H136.248H128.568V260.368H133.944H138.936C152.504 260.368 161.592 256.656 166.2 249.232C170.808 241.808 173.112 230.288 173.112 214.672C173.112 202.64 171.448 193.424 168.12 187.024C165.048 180.624 159.16 177.424 150.456 177.424C142.008 177.424 136.376 181.008 133.56 188.176C131 195.344 129.72 204.56 129.72 215.824V223.888V231.952H65.592V213.136C65.592 194.448 68.92 178.704 75.576 165.904C82.488 152.848 92.216 142.992 104.76 136.336C117.56 129.68 132.792 126.352 150.456 126.352C168.376 126.352 183.736 129.552 196.536 135.952C209.336 142.352 219.192 151.824 226.104 164.368C233.016 176.656 236.472 192.016 236.472 210.448C236.472 228.624 232.76 243.856 225.336 256.144C217.912 268.432 208.952 275.984 198.456 278.8C205.624 281.36 212.024 285.456 217.656 291.088C223.544 296.72 228.152 304.4 231.48 314.128C234.808 323.6 236.472 335.76 236.472 350.608C236.472 369.159 233.772 385.623 228.371 400H267.6V386.04H272.48V393.44H280.52V387.8H285.48V393.44H295.16V385.96H300V384.829L282.56 378.549L267.6 384.549V377.789L276.36 374.229L267.6 371.349V365.389L284.44 371.069L300 364.749V362.123H267.6V351.243C267.6 349.297 267.973 347.697 268.72 346.443C269.44 345.19 270.507 344.257 271.92 343.643C273.307 343.03 275 342.723 277 342.723C279.507 342.723 281.427 343.137 282.76 343.963C284.067 344.79 284.973 345.91 285.48 347.323C285.987 348.737 286.24 350.323 286.24 352.083V354.963H300V339.272H267.6V324.712H272.48L272.48 332.112H280.52V326.472H285.48V332.112H295.16V324.632H300V321.381H267.6V312.461C267.6 310.275 267.84 308.381 268.32 306.781C268.8 305.181 269.667 303.941 270.92 303.061C272.147 302.155 273.893 301.701 276.16 301.701C277.493 301.701 278.68 301.808 279.72 302.021C280.76 302.235 281.667 302.635 282.44 303.221C283.187 303.781 283.813 304.595 284.32 305.661L300 301.221V297.357H267.6V290.197H300V285.366H267.6V270.806H272.48V278.206H280.52V272.566H285.48V278.206H295.16V270.726H300V267.475H267.6V262.435L283.2 255.795H267.6L267.6 249.875H300V239.659C299.789 240.39 299.509 241.041 299.16 241.613C298.253 243.026 297 244.026 295.4 244.613C293.773 245.2 291.867 245.493 289.68 245.493H278C275.76 245.493 273.84 245.2 272.24 244.613C270.613 244.026 269.36 243.026 268.48 241.613C267.6 240.173 267.16 238.226 267.16 235.773C267.16 233.373 267.56 231.506 268.36 230.173C269.133 228.813 270.227 227.853 271.64 227.293C273.053 226.733 274.68 226.453 276.52 226.453H279.32V233.453H276.08C275.44 233.453 274.827 233.493 274.24 233.573C273.653 233.626 273.173 233.813 272.8 234.133C272.4 234.453 272.2 235 272.2 235.773C272.2 236.52 272.4 237.08 272.8 237.453C273.2 237.8 273.707 238.026 274.32 238.133C274.907 238.213 275.533 238.253 276.2 238.253H291.44C292.16 238.253 292.827 238.2 293.44 238.093C294.027 237.96 294.507 237.72 294.88 237.373C295.227 237 295.4 236.466 295.4 235.773C295.4 235.026 295.213 234.493 294.84 234.173C294.44 233.853 293.933 233.653 293.32 233.573C292.707 233.493 292.08 233.453 291.44 233.453H288.04V226.453H290.84C292.68 226.453 294.333 226.733 295.8 227.293C297.24 227.826 298.387 228.773 299.24 230.133C299.552 230.637 299.806 231.219 300 231.879V222.514L267.6 222.514V207.954H272.48V215.354H280.52V209.714H285.48V215.354H295.16V207.874H300V94.072H280.752V155.512ZM0 17.472L8.208 16.176L8.208 10.464L0 9.12V17.472ZM300 371.469V378.909L290.32 375.429L300 371.469ZM300 308.621V314.221H285.48V312.181L300 308.621ZM283.2 261.355L300 254.715V261.355H283.2ZM280.752 57.592V0H300V57.592H280.752ZM281.24 354.963V352.563C281.24 351.683 281.08 351.017 280.76 350.563C280.44 350.11 279.96 349.817 279.32 349.683C278.68 349.523 277.867 349.443 276.88 349.443C276.053 349.443 275.333 349.51 274.72 349.643C274.08 349.75 273.573 350.03 273.2 350.483C272.827 350.937 272.64 351.643 272.64 352.603V354.963H281.24ZM281.36 314.221V312.221C281.36 311.208 281.187 310.421 280.84 309.861C280.467 309.301 279.947 308.915 279.28 308.701C278.587 308.461 277.76 308.341 276.8 308.341C275.413 308.341 274.333 308.595 273.56 309.101C272.787 309.608 272.4 310.541 272.4 311.901V314.221H281.36ZM13.344 15.36V11.232L28.512 13.296L13.344 15.36ZM38.88 48.774H2.13198e-06L2.50755e-06 57.366L16.992 57.366V63.366L2.76982e-06 63.366L3.14748e-06 72.006H38.88V63.366H23.136V57.366H38.88V48.774ZM38.88 83.3989L3.32446e-06 76.0549L3.67905e-06 84.1669L8.208 85.5109V91.2229L4.04413e-06 92.5189L4.39032e-06 100.439L38.88 93.1909L38.88 83.3989ZM28.512 88.3429L13.344 90.4069L13.344 86.2789L28.512 88.3429ZM38.88 104.364L4.56191e-06 104.364L4.93748e-06 112.956H17.424V115.404L5.23122e-06 119.676L5.61938e-06 128.556L18.816 123.228C19.424 124.508 20.176 125.484 21.072 126.156C22 126.86 23.088 127.34 24.336 127.596C25.584 127.852 27.008 127.98 28.608 127.98C31.328 127.98 33.424 127.436 34.896 126.348C36.4 125.292 37.44 123.804 38.016 121.884C38.592 119.964 38.88 117.692 38.88 115.068V104.364ZM22.368 115.356V112.956H33.12V115.74C33.12 117.372 32.656 118.492 31.728 119.1C30.8 119.708 29.504 120.012 27.84 120.012C26.688 120.012 25.696 119.868 24.864 119.58C24.064 119.324 23.44 118.86 22.992 118.188C22.576 117.516 22.368 116.572 22.368 115.356ZM38.88 130.993L6.03224e-06 138.002L6.42879e-06 147.074L38.88 154.178V146.402L12.48 142.514L38.88 138.337V130.993ZM38.88 162.055L6.76264e-06 154.711L7.11723e-06 162.823L8.20801 164.167V169.879L7.4823e-06 171.175L7.8285e-06 179.095L38.88 171.847V162.055ZM28.512 166.999L13.344 169.063V164.935L28.512 166.999ZM38.88 195.83L8.53062e-06 195.158L8.80128e-06 201.35L26.064 201.926L9.03627e-06 206.726L9.27337e-06 212.15L25.872 216.662L9.50206e-06 217.382L9.76853e-06 223.478L38.88 222.806V213.926L16.272 209.318L38.88 205.046V195.83ZM38.88 234.571L9.9324e-06 227.227L1.0287e-05 235.339L8.20801 236.683V242.395L1.06521e-05 243.691L1.09983e-05 251.611L38.88 244.363V234.571ZM28.512 239.515L13.344 241.579L13.344 237.451L28.512 239.515ZM38.88 255.536H1.11698e-05L1.19357e-05 273.056H5.80801L5.80801 264.128H38.88L38.88 255.536ZM38.88 293.6H1.28337e-05L1.32092e-05 302.192H38.88V293.6Z" fill="#FFDC4E"/>
</svg>
